<?xml version="1.0" encoding="UTF-8" standalone="no"?>
<!-- Created with Inkscape (http://www.inkscape.org/) -->

<svg
   xmlns:dc="http://purl.org/dc/elements/1.1/"
   xmlns:cc="http://creativecommons.org/ns#"
   xmlns:rdf="http://www.w3.org/1999/02/22-rdf-syntax-ns#"
   xmlns:svg="http://www.w3.org/2000/svg"
   xmlns="http://www.w3.org/2000/svg"
   xmlns:sodipodi="http://sodipodi.sourceforge.net/DTD/sodipodi-0.dtd"
   xmlns:inkscape="http://www.inkscape.org/namespaces/inkscape"
   width="1052.3622"
   height="744.09448"
   id="svg2"
   version="1.1"
   inkscape:version="0.48.4 r9939"
   sodipodi:docname="New document 1">
  <defs
     id="defs4">
    <filter
       inkscape:collect="always"
       id="filter3767"
       x="-0.087250997"
       width="1.174502"
       y="-0.19210526"
       height="1.3842105">
      <feGaussianBlur
         inkscape:collect="always"
         stdDeviation="7.4450241"
         id="feGaussianBlur3769" />
    </filter>
  </defs>
  <sodipodi:namedview
     id="base"
     pagecolor="#ffffff"
     bordercolor="#666666"
     borderopacity="1.0"
     inkscape:pageopacity="0.0"
     inkscape:pageshadow="2"
     inkscape:zoom="0.86666599"
     inkscape:cx="256.99124"
     inkscape:cy="339.91489"
     inkscape:document-units="px"
     inkscape:current-layer="layer1"
     showgrid="false"
     inkscape:window-width="1863"
     inkscape:window-height="1059"
     inkscape:window-x="57"
     inkscape:window-y="21"
     inkscape:window-maximized="1" />
  <metadata
     id="metadata7">
    <rdf:RDF>
      <cc:Work
         rdf:about="">
        <dc:format>image/svg+xml</dc:format>
        <dc:type
           rdf:resource="http://purl.org/dc/dcmitype/StillImage" />
        <dc:title></dc:title>
      </cc:Work>
    </rdf:RDF>
  </metadata>
  <g
     inkscape:label="Layer 1"
     inkscape:groupmode="layer"
     id="layer1"
     transform="translate(0,-308.2677)">
    <g
       id="g3771"
       transform="matrix(0.96549344,0,0,0.90183246,47.766036,60.972843)">
      <rect
         transform="matrix(0.98303935,0,0,0.96831432,6.4637664,310.05408)"
         ry="20"
         rx="25"
         y="74.246269"
         x="398.97171"
         height="93.01181"
         width="204.78915"
         id="rect2985"
         style="fill:#000000;filter:url(#filter3767)" />
      <rect
         style="fill:#ff9955;stroke:#d45500;stroke-width:2;stroke-miterlimit:4;stroke-dasharray:none"
         id="rect2987"
         width="204.78915"
         height="93.01181"
         x="394.07635"
         y="375.98685"
         rx="25"
         ry="20" />
    </g>
    <g
       transform="matrix(0.96549344,0,0,0.90183246,375.4586,153.48879)"
       id="g3775">
      <rect
         style="fill:#000000;filter:url(#filter3767)"
         id="rect3777"
         width="204.78915"
         height="93.01181"
         x="398.97171"
         y="74.246269"
         rx="25"
         ry="20"
         transform="matrix(0.98303935,0,0,0.96831432,6.4637664,310.05408)" />
      <rect
         ry="20"
         rx="25"
         y="375.98685"
         x="394.07635"
         height="93.01181"
         width="204.78915"
         id="rect3779"
         style="fill:#ff9955;stroke:#d45500;stroke-width:2;stroke-miterlimit:4;stroke-dasharray:none" />
    </g>
    <g
       id="g3781"
       transform="matrix(0.96549344,0,0,0.90183246,55.842965,275.79658)">
      <rect
         transform="matrix(0.98303935,0,0,0.96831432,6.4637664,310.05408)"
         ry="20"
         rx="25"
         y="74.246269"
         x="398.97171"
         height="93.01181"
         width="204.78915"
         id="rect3783"
         style="fill:#000000;filter:url(#filter3767)" />
      <rect
         style="fill:#ff9955;stroke:#d45500;stroke-width:2;stroke-miterlimit:4;stroke-dasharray:none"
         id="rect3785"
         width="204.78915"
         height="93.01181"
         x="394.07635"
         y="375.98685"
         rx="25"
         ry="20" />
    </g>
    <g
       transform="matrix(0.96549344,0,0,0.90183246,-251.08035,156.95033)"
       id="g3787">
      <rect
         style="fill:#000000;filter:url(#filter3767)"
         id="rect3789"
         width="204.78915"
         height="93.01181"
         x="398.97171"
         y="74.246269"
         rx="25"
         ry="20"
         transform="matrix(0.98303935,0,0,0.96831432,6.4637664,310.05408)" />
      <rect
         ry="20"
         rx="25"
         y="375.98685"
         x="394.07635"
         height="93.01181"
         width="204.78915"
         id="rect3791"
         style="fill:#ff9955;stroke:#d45500;stroke-width:2;stroke-miterlimit:4;stroke-dasharray:none" />
    </g>
    <g
       id="g3793"
       transform="matrix(0.96549344,0,0,0.90183246,-367.6189,315.02737)">
      <rect
         transform="matrix(0.98303935,0,0,0.96831432,6.4637664,310.05408)"
         ry="20"
         rx="25"
         y="74.246269"
         x="398.97171"
         height="93.01181"
         width="204.78915"
         id="rect3795"
         style="fill:#000000;filter:url(#filter3767)" />
      <rect
         style="fill:#ff9955;stroke:#d45500;stroke-width:2;stroke-miterlimit:4;stroke-dasharray:none"
         id="rect3797"
         width="204.78915"
         height="93.01181"
         x="394.07635"
         y="375.98685"
         rx="25"
         ry="20" />
    </g>
    <g
       transform="matrix(0.96549344,0,0,0.90183246,-207.10547,463.87365)"
       id="g3799">
      <rect
         style="fill:#000000;filter:url(#filter3767)"
         id="rect3801"
         width="204.78915"
         height="93.01181"
         x="398.97171"
         y="74.246269"
         rx="25"
         ry="20"
         transform="matrix(0.98303935,0,0,0.96831432,6.4637664,310.05408)" />
      <rect
         ry="20"
         rx="25"
         y="375.98685"
         x="394.07635"
         height="93.01181"
         width="204.78915"
         id="rect3803"
         style="fill:#ff9955;stroke:#d45500;stroke-width:2;stroke-miterlimit:4;stroke-dasharray:none" />
    </g>
    <g
       id="g3805"
       transform="matrix(0.96549344,0,0,0.90183246,404.30477,452.44321)">
      <rect
         transform="matrix(0.98303935,0,0,0.96831432,6.4637664,310.05408)"
         ry="20"
         rx="25"
         y="74.246269"
         x="398.97171"
         height="93.01181"
         width="204.78915"
         id="rect3807"
         style="fill:#000000;filter:url(#filter3767)" />
      <rect
         style="fill:#ff9955;stroke:#d45500;stroke-width:2;stroke-miterlimit:4;stroke-dasharray:none"
         id="rect3809"
         width="204.78915"
         height="93.01181"
         x="394.07635"
         y="375.98685"
         rx="25"
         ry="20" />
    </g>
    <g
       transform="matrix(0.96549344,0,0,0.90183246,27.381404,463.87364)"
       id="g3811">
      <rect
         style="fill:#000000;filter:url(#filter3767)"
         id="rect3813"
         width="204.78915"
         height="93.01181"
         x="398.97171"
         y="74.246269"
         rx="25"
         ry="20"
         transform="matrix(0.98303935,0,0,0.96831432,6.4637664,310.05408)" />
      <rect
         ry="20"
         rx="25"
         y="375.98685"
         x="394.07635"
         height="93.01181"
         width="204.78915"
         id="rect3815"
         style="fill:#ff9955;stroke:#d45500;stroke-width:2;stroke-miterlimit:4;stroke-dasharray:none" />
    </g>
    <g
       id="g3817"
       transform="matrix(0.96549344,0,0,0.90183246,456.22789,298.87351)">
      <rect
         transform="matrix(0.98303935,0,0,0.96831432,6.4637664,310.05408)"
         ry="20"
         rx="25"
         y="74.246269"
         x="398.97171"
         height="93.01181"
         width="204.78915"
         id="rect3819"
         style="fill:#000000;filter:url(#filter3767)" />
      <rect
         style="fill:#ff9955;stroke:#d45500;stroke-width:2;stroke-miterlimit:4;stroke-dasharray:none"
         id="rect3821"
         width="204.78915"
         height="93.01181"
         x="394.07635"
         y="375.98685"
         rx="25"
         ry="20" />
    </g>
    <text
       xml:space="preserve"
       style="font-size:23px;font-style:normal;font-weight:normal;line-height:125%;letter-spacing:0px;word-spacing:0px;fill:#000000;fill-opacity:1;stroke:none;font-family:Sans"
       x="442.92477"
       y="451.1503"
       id="text3837"
       sodipodi:linespacing="125%"><tspan
         sodipodi:role="line"
         id="tspan3839"
         x="442.92477"
         y="451.1503"
         style="font-size:23px">General Solver</tspan></text>
    <g
       id="g3841"
       transform="matrix(0.96549344,0,0,0.90183246,261.86828,571.07338)">
      <rect
         transform="matrix(0.98303935,0,0,0.96831432,6.4637664,310.05408)"
         ry="20"
         rx="25"
         y="74.246269"
         x="398.97171"
         height="93.01181"
         width="204.78915"
         id="rect3843"
         style="fill:#000000;filter:url(#filter3767)" />
      <rect
         style="fill:#ff9955;stroke:#d45500;stroke-width:2;stroke-miterlimit:4;stroke-dasharray:none"
         id="rect3845"
         width="204.78915"
         height="93.01181"
         x="394.07635"
         y="375.98685"
         rx="25"
         ry="20" />
    </g>
  </g>
</svg>
